<?xml version="1.0" encoding="utf-8"?>
<!-- Generator: Adobe Illustrator 23.0.1, SVG Export Plug-In . SVG Version: 6.00 Build 0)  -->
<svg version="1.1" id="Слой_1" xmlns="http://www.w3.org/2000/svg" xmlns:xlink="http://www.w3.org/1999/xlink" x="0px" y="0px" width="32px" height="13px"
	 viewBox="0 0 32 13" enable-background="new 0 0 32 13" xml:space="preserve">
<g>
	<circle fill="#1F1F22" cx="16" cy="6.5" r="6.5"/>
	<path fill-rule="evenodd" clip-rule="evenodd" fill="#CDCDCD" fill-opacity="0.1" d="M18.53825,9.4612913
		c1.6354218-1.4016876,1.8249016-3.8637505,0.423214-5.4991722s-3.8637505-1.8249002-5.4991722-0.423213
		s-1.8249006,3.8637505-0.423213,5.4991722c0.130022,0.1517029,0.2715101,0.293191,0.423213,0.423213l-0.8466244,0.9869165
		C11.4619789,9.4611425,10.7984657,8.0183191,10.8000002,6.5c0-2.8718805,2.3281193-5.1999998,5.1999998-5.1999998
		S21.2000008,3.6281195,21.2000008,6.5c0.0016937,1.518508-0.6618347,2.9615622-1.8156662,3.9487505
		C19.3843346,10.4487505,18.53825,9.4612923,18.53825,9.4612913z"/>
	<path fill-rule="evenodd" clip-rule="evenodd" fill="#FFC800" d="M16,1.3000001
		c-2.8718805,0-5.1999998,2.3281193-5.1999998,5.1999998c-0.0016937,1.518508,0.6618338,2.9615622,1.8156662,3.9487505
		L13.46175,9.4612923c-1.6354771-1.4016228-1.8250523-3.8636785-0.4234295-5.499155
		C13.7793407,3.0974817,14.8612547,2.5998869,16,2.6000001V1.3000001z"/>
	<path fill="#FFC800" d="M15.8997917,7.8455c-0.2090836,0-0.5232496-0.0167918-0.9419584-0.050375V7.2447915
		c0.3764582,0.0698752,0.65975,0.1045418,0.8509579,0.1045418c0.1668329,0,0.288167-0.0178752,0.3639994-0.0541668
		c0.0713806-0.0322032,0.116291-0.1042757,0.1137505-0.1825418V6.6717081c0-0.0823336-0.0270824-0.1397505-0.0817909-0.1733332
		c-0.0547085-0.0362921-0.144083-0.0541668-0.2686672-0.0541668H15.026083V4.8468332h1.8654995v0.5097084h-1.2003326v0.6007085
		h0.4636669c0.1760426,0,0.3477497,0.0330415,0.5145836,0.1002083c0.1871433,0.0792775,0.306345,0.2653961,0.3000832,0.4685416
		v0.6185837c0,0.1186247-0.0227509,0.2247915-0.0682507,0.3185c-0.0454998,0.0910001-0.1029167,0.1608748-0.1733322,0.2096252
		c-0.074152,0.0515156-0.157423,0.0884633-0.2453766,0.1088748c-0.1002083,0.0270834-0.1971664,0.0454998-0.2908745,0.0547085
		c-0.0970383,0.005671-0.1942129,0.0087414-0.2914162,0.0092082L15.8997917,7.8455z"/>
</g>
</svg>
