<?xml version="1.0" encoding="utf-8"?>
<!-- Generator: Adobe Illustrator 23.0.1, SVG Export Plug-In . SVG Version: 6.00 Build 0)  -->
<svg version="1.1" id="Слой_1" xmlns="http://www.w3.org/2000/svg" xmlns:xlink="http://www.w3.org/1999/xlink" x="0px" y="0px" width="32px" height="13px"
	 viewBox="0 0 32 13" enable-background="new 0 0 32 13" xml:space="preserve">
<g>
	<circle fill="#1F1F22" cx="16" cy="6.5" r="6.5"/>
	<path fill-rule="evenodd" clip-rule="evenodd" fill="#CDCDCD" fill-opacity="0.1" d="M18.53825,9.4612913
		c1.6354218-1.4016876,1.8249016-3.8637505,0.423214-5.4991722s-3.8637505-1.8249002-5.4991722-0.423213
		s-1.8249006,3.8637505-0.423213,5.4991722c0.130022,0.1517029,0.2715101,0.293191,0.423213,0.423213l-0.8466244,0.9869165
		C11.4619789,9.4611425,10.7984657,8.0183191,10.8000002,6.5c0-2.8718805,2.3281193-5.1999998,5.1999998-5.1999998
		S21.2000008,3.6281195,21.2000008,6.5c0.0016937,1.518508-0.6618347,2.9615622-1.8156662,3.9487505
		C19.3843346,10.4487505,18.53825,9.4612923,18.53825,9.4612913z"/>
	<path fill-rule="evenodd" clip-rule="evenodd" fill="#FF6309" d="M19.8999996,6.5h1.3000011
		C21.2000008,3.6281195,18.8718796,1.3,16,1.3000001c-2.8718805,0-5.1999998,2.3281193-5.1999998,5.1999998
		c-0.0016937,1.518508,0.6618338,2.9615622,1.8156662,3.9487505L13.46175,9.4612923
		c-1.635293-1.4018373-1.8245468-3.8639174-0.4227095-5.4992104s3.8639174-1.8245463,5.4992113-0.4227092
		C19.402483,4.2802262,19.8999023,5.3616848,19.8999996,6.5z"/>
	<path fill="#FF6309" d="M16,7.8455c-0.3916245,0-0.6781664-0.0487499-0.8601665-0.1457081
		c-0.17875-0.0975003-0.2686672-0.2654166-0.2686672-0.5048337V6.6852498c0-0.0974998,0.0487499-0.1879582,0.1457081-0.2729998
		c0.0969591-0.0850415,0.2123337-0.142458,0.3455839-0.1733332V6.2210422
		c-0.1023779-0.0117688-0.1981726-0.0564351-0.2729998-0.1272917c-0.073842-0.0623055-0.1169395-0.1536412-0.118084-0.2502499
		V5.4204588c0-0.2123332,0.0774584-0.3683333,0.2318344-0.4690833c0.1576252-0.0996666,0.4230413-0.1500421,0.7962494-0.1500421
		c0.373209,0,0.637001,0.0503755,0.7919178,0.1500421c0.1576252,0.1002083,0.2367077,0.2567501,0.2367077,0.4690833v0.4224997
		c-0.0011215,0.0968862-0.0444393,0.1884656-0.1186256,0.250792c-0.0748253,0.0708566-0.1706219,0.1155229-0.2729988,0.1272917
		V6.239459c0.133791,0.030333,0.2491665,0.0877495,0.3461246,0.1727915s0.1451664,0.1760416,0.1451664,0.2729998V7.194417
		c0,0.2459164-0.092083,0.4159999-0.2773342,0.5097084C16.6651669,7.7983751,16.381876,7.8449588,16,7.8449588V7.8455z
		 M16,6.0617914c0.1332493,0,0.2253342-0.0184164,0.2773342-0.0541668c0.0541668-0.0400834,0.0812492-0.1018329,0.0812492-0.1868749
		V5.4794998c0-0.0882921-0.0270844-0.1500421-0.0812492-0.1868753c-0.052-0.0389996-0.1440849-0.059042-0.2778759-0.059042
		c-0.1332502,0-0.2275,0.0200415-0.2816668,0.0595832c-0.052,0.0362921-0.0774584,0.0980415-0.0774584,0.1863332v0.3412504
		c-0.0042467,0.0693593,0.0242167,0.1367078,0.0769176,0.1820002c0.0487499,0.0395417,0.1429996,0.0595832,0.2822075,0.0595832
		L16,6.0617914z M16,7.41325c0.1299992,0,0.2242489-0.0075831,0.2816677-0.0227499
		c0.060667-0.0151668,0.1002083-0.0411668,0.118082-0.0774584c0.0216675-0.0362916,0.0325012-0.0942497,0.0325012-0.1733332
		V6.7399588c0-0.0882916-0.026001-0.1532917-0.078001-0.1960831c-0.0514584-0.0389996-0.1679153-0.059042-0.3499165-0.059042
		c-0.1733322,0-0.2897911,0.0200415-0.3504581,0.0595832c-0.0579586,0.0362921-0.0866661,0.1012921-0.0866661,0.1950002v0.4008331
		c0,0.0785418,0.0092077,0.1364999,0.0270834,0.1733332c0.0216665,0.0357499,0.0612078,0.0617499,0.1186247,0.0769167
		C15.7735844,7.4056668,15.8689175,7.41325,16,7.41325z"/>
</g>
</svg>
