<?xml version="1.0" encoding="utf-8"?>
<!-- Generator: Adobe Illustrator 23.0.1, SVG Export Plug-In . SVG Version: 6.00 Build 0)  -->
<svg version="1.1" id="Слой_1" xmlns="http://www.w3.org/2000/svg" xmlns:xlink="http://www.w3.org/1999/xlink" x="0px" y="0px" width="32px" height="13px"
	 viewBox="0 0 32 13" enable-background="new 0 0 32 13" xml:space="preserve">
<g>
	<circle fill="#1F1F22" cx="16" cy="6.5" r="6.5"/>
	<path fill-rule="evenodd" clip-rule="evenodd" fill="#CDCDCD" fill-opacity="0.1" d="M18.53825,9.4612913
		c1.6354218-1.4016876,1.8249016-3.8637505,0.423214-5.4991722s-3.8637505-1.8249002-5.4991722-0.423213
		s-1.8249006,3.8637505-0.423213,5.4991722c0.130022,0.1517029,0.2715101,0.293191,0.423213,0.423213l-0.8466244,0.9869165
		C11.4619789,9.4611425,10.7984657,8.0183191,10.8000002,6.5c0-2.8718805,2.3281193-5.1999998,5.1999998-5.1999998
		S21.2000008,3.6281195,21.2000008,6.5c0.0016937,1.518508-0.6618347,2.9615622-1.8156662,3.9487505
		C19.3843346,10.4487505,18.53825,9.4612923,18.53825,9.4612913z"/>
	<path fill-rule="evenodd" clip-rule="evenodd" fill="#1CE400" d="M10.8000002,6.5
		c-0.0016937,1.518508,0.6618338,2.9615622,1.8156662,3.9487505L13.46175,9.4612923
		C12.5965891,8.7209063,12.099143,7.6387157,12.1005421,6.5H10.8000002z"/>
	<path fill="#1CE400" d="M15.8862495,7.8455c-0.2545834,0-0.5849991-0.0227499-0.9917917-0.0682502V7.2491245l0.145709,0.0270834
		C15.0975828,7.2886662,15.1295414,7.2962494,15.1355,7.2995l0.1549168,0.0270834
		c0.0362911,0.0059581,0.1137495,0.0151668,0.2318335,0.0270834c0.0909996,0.0092082,0.1836243,0.0140834,0.2778749,0.0140834
		c0.1754999,0,0.296833-0.0216665,0.3640003-0.0639167c0.069334-0.0422502,0.1045418-0.1229587,0.1045418-0.2410417V6.7215419
		c0-0.1424584-0.1532917-0.2139587-0.4598751-0.2139587H15.272542V6.0525832h0.5362501
		c0.2367077,0,0.3553333-0.0866666,0.3553333-0.2594585V5.5065832c0.0032654-0.0512266-0.0096169-0.1021872-0.0368328-0.1457086
		c-0.0238342-0.0362921-0.0682507-0.0617499-0.1316261-0.0769167c-0.0898485-0.0178695-0.1814318-0.0255017-0.2729998-0.0227499
		c-0.1733332,0-0.4398327,0.0178747-0.8011246,0.0541668V4.8424997c0.4127502-0.0270834,0.7041664-0.0411668,0.8737078-0.0411668
		c0.3699589,0,0.637001,0.0427918,0.8011246,0.1272917c0.1668339,0.0850415,0.2502518,0.2350831,0.2502518,0.4506664v0.4869585
		c0.0017719,0.0834284-0.0275784,0.1645293-0.0823345,0.2275c-0.0521622,0.0611019-0.1223125,0.1041403-0.2004166,0.1229587
		c0.2675838,0.093708,0.4008331,0.2410412,0.4008331,0.4409165V7.139708c0,0.2524166-0.0866661,0.4327917-0.2594585,0.541667
		C16.5324574,7.7907915,16.2594585,7.8455,15.8862495,7.8455z"/>
</g>
</svg>
