<?xml version="1.0" encoding="utf-8"?>
<!-- Generator: Adobe Illustrator 23.0.1, SVG Export Plug-In . SVG Version: 6.00 Build 0)  -->
<svg version="1.1" id="Слой_1" xmlns="http://www.w3.org/2000/svg" xmlns:xlink="http://www.w3.org/1999/xlink" x="0px" y="0px" width="32px" height="13px"
	 viewBox="0 0 32 13" enable-background="new 0 0 32 13" xml:space="preserve">
<g>
	<circle fill="#1F1F22" cx="16" cy="6.5" r="6.5"/>
	<path fill-rule="evenodd" clip-rule="evenodd" fill="#CDCDCD" fill-opacity="0.1" d="M18.53825,9.4612913
		c1.6354218-1.4016876,1.8249016-3.8637505,0.423214-5.4991722s-3.8637505-1.8249002-5.4991722-0.423213
		s-1.8249006,3.8637505-0.423213,5.4991722c0.130022,0.1517029,0.2715101,0.293191,0.423213,0.423213l-0.8466244,0.9869165
		C11.4619789,9.4611425,10.7984657,8.0183191,10.8000002,6.5c0-2.8718805,2.3281193-5.1999998,5.1999998-5.1999998
		S21.2000008,3.6281195,21.2000008,6.5c0.0016937,1.518508-0.6618347,2.9615622-1.8156662,3.9487505
		C19.3843346,10.4487505,18.53825,9.4612923,18.53825,9.4612913z"/>
	<path fill-rule="evenodd" clip-rule="evenodd" fill="#FFC800" d="M19.2142506,4.29
		c-1.2212563-1.7742226-3.6495705-2.222491-5.4237928-1.0012357s-2.2224913,3.6495702-1.001236,5.4237928
		c0.1909342,0.2773867,0.4169903,0.5288763,0.6725283,0.7481928l-0.8460836,0.9880009
		C11.461834,9.4615622,10.7983065,8.018508,10.8000002,6.5c-0.0009165-2.8718808,2.3264599-5.2007427,5.1983404-5.2016592
		c1.713335-0.0005468,3.3169823,0.8429198,4.2873249,2.2549927C20.2856655,3.5533333,19.2142487,4.29,19.2142506,4.29z"/>
	<path fill="#FFC800" d="M16.2957497,5.3657503h-1.4332495V4.8468332h2.166667v0.4549999l-1.133709,2.4981666h-0.7366667
		l1.1374998-2.4342494H16.2957497z"/>
</g>
</svg>
