<?xml version="1.0" encoding="utf-8"?>
<!-- Generator: Adobe Illustrator 23.0.1, SVG Export Plug-In . SVG Version: 6.00 Build 0)  -->
<svg version="1.1" id="Слой_1" xmlns="http://www.w3.org/2000/svg" xmlns:xlink="http://www.w3.org/1999/xlink" x="0px" y="0px" width="32px" height="13px"
	 viewBox="0 0 32 13" enable-background="new 0 0 32 13" xml:space="preserve">
<g>
	<circle fill="#1F1F22" cx="16" cy="6.5" r="6.5"/>
	<path fill-rule="evenodd" clip-rule="evenodd" fill="#CDCDCD" fill-opacity="0.1" d="M18.53825,9.4612913
		c1.6354218-1.4016876,1.8249016-3.8637505,0.423214-5.4991722s-3.8637505-1.8249002-5.4991722-0.423213
		s-1.8249006,3.8637505-0.423213,5.4991722c0.130022,0.1517029,0.2715101,0.293191,0.423213,0.423213l-0.8466244,0.9869165
		C11.4619789,9.4611425,10.7984657,8.0183191,10.8000002,6.5c0-2.8718805,2.3281193-5.1999998,5.1999998-5.1999998
		S21.2000008,3.6281195,21.2000008,6.5c0.0016937,1.518508-0.6618347,2.9615622-1.8156662,3.9487505
		C19.3843346,10.4487505,18.53825,9.4612923,18.53825,9.4612913z"/>
	<path fill-rule="evenodd" clip-rule="evenodd" fill="#FFC800" d="M18.0669994,3.193125
		c-1.8264885-1.1416087-4.2326059-0.5864041-5.3742142,1.2400849C11.670496,6.0687952,11.9973478,8.2060051,13.46175,9.4612913
		l-0.8460836,0.9869165C11.461978,9.4611425,10.7984657,8.0183191,10.8000002,6.5
		c0-2.8718805,2.3281193-5.1999998,5.1999998-5.1999998c1.0129166,0,1.9570408,0.2897917,2.7565422,0.7897501
		C18.7565422,2.0897501,18.0670013,3.193125,18.0669994,3.193125z"/>
	<path fill="#FFC800" d="M15.9956665,7.8455c-0.1108389,0.0011606-0.2216644-0.0033588-0.3320417-0.0135412
		c-0.0913591-0.0106115-0.1813869-0.0305772-0.2686663-0.0595832c-0.0900879-0.0262532-0.1736765-0.0710917-0.2453756-0.1316252
		c-0.068614-0.0663877-0.121541-0.1472578-0.1549168-0.2367082c-0.0443258-0.1193466-0.0660019-0.2459135-0.0639162-0.3732085
		V5.6566253c0-0.1451664,0.024375-0.2740831,0.0731249-0.3867497c0.0514584-0.1148334,0.1164579-0.203125,0.1955414-0.263792
		c0.0666256-0.0514584,0.1560001-0.0937085,0.2686672-0.1272912c0.106101-0.0351315,0.215868-0.0580297,0.3271666-0.0682502
		c0.1153755-0.0059586,0.2199173-0.0092087,0.314167-0.0092087c0.1299992,0,0.4035416,0.0151668,0.8190002,0.0454998v0.4874997
		c-0.4095001-0.0487499-0.7020016-0.0731249-0.8780422-0.0731249c-0.145709,0-0.2491665,0.0075831-0.3092918,0.0227499
		c-0.060667,0.0151668-0.1018333,0.0454998-0.1229582,0.0910001c-0.0184174,0.0422502-0.0270834,0.1191669-0.0270834,0.2318335
		v0.3504586h0.4864159c0.1641254,0,0.2822094,0.0027084,0.3547916,0.0092082
		c0.0731258,0.0027084,0.1549168,0.0162501,0.2459164,0.0406251c0.0974998,0.024375,0.1679173,0.0595832,0.2139587,0.1045418
		c0.0487499,0.0427918,0.0910015,0.1083331,0.1272926,0.1960835c0.0335827,0.0910001,0.0498333,0.1982498,0.0498333,0.3228331
		v0.4008331c0,0.1392083-0.0211258,0.262167-0.0633755,0.3683333c-0.0427914,0.1029167-0.0974998,0.1830835-0.1641254,0.2410417
		c-0.060667,0.0541668-0.1408329,0.0985832-0.2410412,0.1316252c-0.0938358,0.032856-0.1916771,0.0528979-0.2908745,0.0595832
		C16.2054176,7.8419204,16.1005535,7.8464403,15.9956665,7.8455z M16.0048752,7.4040422
		c0.1332493,0,0.2258739-0.0075836,0.2773323-0.0227499c0.0547085-0.0151668,0.0893764-0.0438752,0.1045418-0.0866671
		c0.0186062-0.0757966,0.0262661-0.1538658,0.0227509-0.2318335V6.6348753c0-0.0725832-0.008667-0.1245832-0.0270844-0.1543751
		c-0.0184155-0.0335832-0.0563335-0.0563331-0.1137486-0.0682502c-0.0887451-0.0148516-0.1787262-0.0210195-0.2686682-0.0184169
		h-0.4094992v0.6732917c0,0.1029167,0.0075836,0.1776667,0.0227499,0.2231665
		c0.0184164,0.0454998,0.0547085,0.0758338,0.109416,0.0910001c0.0574169,0.0151668,0.1516666,0.0227499,0.2816677,0.0227499
		L16.0048752,7.4040422z"/>
</g>
</svg>
