<?xml version="1.0" encoding="utf-8"?>
<!-- Generator: Adobe Illustrator 23.0.1, SVG Export Plug-In . SVG Version: 6.00 Build 0)  -->
<svg version="1.1" id="Слой_1" xmlns="http://www.w3.org/2000/svg" xmlns:xlink="http://www.w3.org/1999/xlink" x="0px" y="0px" width="32px" height="13px"
	 viewBox="0 0 32 13" enable-background="new 0 0 32 13" xml:space="preserve">
<g>
	<circle fill="#1F1F22" cx="16" cy="6.5" r="6.5"/>
	<path fill-rule="evenodd" clip-rule="evenodd" fill="#CDCDCD" fill-opacity="0.1" d="M18.53825,9.4612913
		c1.6354218-1.4016876,1.8249016-3.8637505,0.423214-5.4991722s-3.8637505-1.8249002-5.4991722-0.423213
		s-1.8249006,3.8637505-0.423213,5.4991722c0.130022,0.1517029,0.2715101,0.293191,0.423213,0.423213l-0.8466244,0.9869165
		C11.4619789,9.4611425,10.7984657,8.0183191,10.8000002,6.5c0-2.8718805,2.3281193-5.1999998,5.1999998-5.1999998
		S21.2000008,3.6281195,21.2000008,6.5c0.0016937,1.518508-0.6618347,2.9615622-1.8156662,3.9487505
		C19.3843346,10.4487505,18.53825,9.4612923,18.53825,9.4612913z"/>
	<path fill-rule="evenodd" clip-rule="evenodd" fill="#FFC800" d="M13.2429161,3.7429166l-0.9202909-0.9202917
		C11.3459682,3.7969706,10.7979851,5.1204333,10.8000002,6.5c-0.0015345,1.5183191,0.6619778,2.9611425,1.8156662,3.9482079
		L13.46175,9.4612913C12.59659,8.7209053,12.099143,7.6387153,12.1005421,6.5c0-1.0768332,0.4360409-2.0518332,1.1418333-2.7570834
		H13.2429161z"/>
	<path fill="#FFC800" d="M16.1641254,7.2041669h-1.3649998V6.6803751l1.2149582-1.8335419h0.7507496v1.8795834h0.3185005v0.4772081
		h-0.3185005v0.5958338h-0.600708V7.2036247V7.2041669z M16.1641254,6.7258749V5.4746251l-0.7962503,1.2512498H16.1641254z"/>
</g>
</svg>
