<?xml version="1.0" encoding="utf-8"?>
<!-- Generator: Adobe Illustrator 23.0.1, SVG Export Plug-In . SVG Version: 6.00 Build 0)  -->
<svg version="1.1" id="Слой_1" xmlns="http://www.w3.org/2000/svg" xmlns:xlink="http://www.w3.org/1999/xlink" x="0px" y="0px" width="32px" height="13px"
	 viewBox="0 0 32 13" enable-background="new 0 0 32 13" xml:space="preserve">
<g>
	<circle fill="#1F1F22" cx="16" cy="6.5" r="6.5"/>
	<path fill-rule="evenodd" clip-rule="evenodd" fill="#CDCDCD" fill-opacity="0.1" d="M18.53825,9.4612913
		c1.6354218-1.4016876,1.8249016-3.8637505,0.423214-5.4991722s-3.8637505-1.8249002-5.4991722-0.423213
		s-1.8249006,3.8637505-0.423213,5.4991722c0.130022,0.1517029,0.2715101,0.293191,0.423213,0.423213l-0.8466244,0.9869165
		C11.4619789,9.4611425,10.7984657,8.0183191,10.8000002,6.5c0-2.8718805,2.3281193-5.1999998,5.1999998-5.1999998
		S21.2000008,3.6281195,21.2000008,6.5c0.0016937,1.518508-0.6618347,2.9615622-1.8156662,3.9487505
		C19.3843346,10.4487505,18.53825,9.4612923,18.53825,9.4612913z"/>
	<path fill-rule="evenodd" clip-rule="evenodd" fill="#FF6309" d="M19.5300426,8.1607504
		c0.9170284-1.948946,0.0804939-4.2722769-1.8684521-5.1893058s-4.2722759-0.0804949-5.1893053,1.8684506
		c-0.747015,1.5876188-0.3418694,3.4786329,0.9900064,4.6208544l-0.847167,0.9880009
		C11.4614944,9.4614601,10.798171,8.0184212,10.8000002,6.5c0-2.8718805,2.3281193-5.1999998,5.1999998-5.1999998
		S21.2000008,3.6281195,21.2000008,6.5c0.0014038,0.7656479-0.1669407,1.5220852-0.492918,2.2148752L19.5300426,8.1607504z"/>
	<path fill="#FF6309" d="M15.9133339,7.8455c-0.2600002,0-0.5411253-0.0151663-0.8412085-0.0454998V7.3265839
		c0.3883753,0.0427918,0.6657085,0.0639167,0.8325415,0.0639167c0.1549168,0,0.2670422-0.0108337,0.336916-0.0319581
		c0.069334-0.021667,0.1148338-0.060667,0.1365013-0.118084c0.0238323-0.0579586,0.0362911-0.1489582,0.0362911-0.2729998V6.6895838
		h-0.491292c-0.1641245,0-0.2822075-0.0016255-0.3553333-0.004334c-0.0829649-0.0079594-0.1650715-0.0231843-0.2453747-0.0454998
		c-0.0788794-0.0165811-0.1524029-0.052505-0.2139587-0.1045413c-0.0560312-0.057127-0.0994034-0.1254148-0.1272917-0.2004166
		c-0.0353279-0.1023936-0.0523796-0.2102017-0.050375-0.3185005V5.6154585c0-0.1392083,0.0216665-0.2599998,0.0639172-0.3634577
		c0.0422497-0.1061668,0.0974998-0.1895838,0.1635828-0.2502503c0.060667-0.0514584,0.1397505-0.0942497,0.2367086-0.1272912
		c0.1002083-0.0335836,0.1987915-0.0547085,0.2957506-0.0639167c0.1153746-0.0059581,0.2199163-0.0092087,0.3141661-0.0092087
		c0.142458,0,0.2545834,0.0048752,0.3363762,0.0135417c0.085041,0.0064998,0.1744156,0.024375,0.2686653,0.054708
		c0.1849632,0.0542774,0.3335094,0.1925855,0.4008331,0.3732085c0.0440197,0.1194143,0.0655079,0.2459574,0.0633755,0.3732085
		v1.374208c0,0.3060417-0.0926247,0.5259581-0.277874,0.6597505c-0.1820011,0.1299996-0.4761257,0.1949997-0.8829174,0.1949997
		V7.8455z M16.4143753,6.2481251V5.5574999c0-0.1029162-0.0092087-0.1744161-0.0270844-0.2139583
		c-0.015707-0.0395417-0.050375-0.0650001-0.1050835-0.0774584c-0.0946903-0.0154195-0.1906548-0.0215874-0.286541-0.0184169
		c-0.0915833-0.0033889-0.1832409,0.0042491-0.2729998,0.0227499c-0.0464334,0.0082126-0.0856752,0.0391188-0.1045418,0.0823336
		c-0.0184164,0.039-0.0270834,0.1072502-0.0270834,0.2047501v0.4501252c0,0.0731254,0.008667,0.1262083,0.0270834,0.1592498
		c0.0178747,0.0303335,0.0541668,0.0514588,0.1088753,0.0639172C15.8172417,6.2452674,15.9086418,6.2512517,16,6.2486668h0.4143753
		V6.2481251z"/>
</g>
</svg>
