<?xml version="1.0" encoding="utf-8"?>
<!-- Generator: Adobe Illustrator 23.0.1, SVG Export Plug-In . SVG Version: 6.00 Build 0)  -->
<svg version="1.1" id="Слой_1" xmlns="http://www.w3.org/2000/svg" xmlns:xlink="http://www.w3.org/1999/xlink" x="0px" y="0px" width="32px" height="13px"
	 viewBox="0 0 32 13" enable-background="new 0 0 32 13" xml:space="preserve">
<g>
	<circle fill="#1F1F22" cx="16" cy="6.5" r="6.5"/>
	<path fill-rule="evenodd" clip-rule="evenodd" fill="#CDCDCD" fill-opacity="0.1" d="M18.53825,9.4612913
		c1.6354218-1.4016876,1.8249016-3.8637505,0.423214-5.4991722s-3.8637505-1.8249002-5.4991722-0.423213
		s-1.8249006,3.8637505-0.423213,5.4991722c0.130022,0.1517029,0.2715101,0.293191,0.423213,0.423213l-0.8466244,0.9869165
		C11.4619789,9.4611425,10.7984657,8.0183191,10.8000002,6.5c0-2.8718805,2.3281193-5.1999998,5.1999998-5.1999998
		S21.2000008,3.6281195,21.2000008,6.5c0.0016937,1.518508-0.6618347,2.9615622-1.8156662,3.9487505
		C19.3843346,10.4487505,18.53825,9.4612923,18.53825,9.4612913z"/>
	<path fill-rule="evenodd" clip-rule="evenodd" fill="#FE1F00" d="M18.53825,9.4612913
		c1.6354218-1.4016876,1.8249016-3.8637505,0.423214-5.4991722s-3.8637505-1.8249002-5.4991722-0.423213
		s-1.8249006,3.8637505-0.423213,5.4991722c0.130022,0.1517029,0.2715101,0.293191,0.423213,0.423213l-0.8466244,0.9869165
		C11.4619789,9.4611425,10.7984657,8.0183191,10.8000002,6.5c0-2.8718805,2.3281193-5.1999998,5.1999998-5.1999998
		S21.2000008,3.6281195,21.2000008,6.5c0.0016937,1.518508-0.6618347,2.9615622-1.8156662,3.9487505
		C19.3843346,10.4487505,18.53825,9.4612923,18.53825,9.4612913z"/>
	<path fill="#FE1F00" d="M14.5012083,5.5428748l-0.8054581,0.4463334V5.4291248L14.6285,4.8468332h0.5367918v2.9531665h-0.6640835
		V5.5428748z M16.9901657,7.8454995c-0.1332493,0-0.2426662-0.0048747-0.3271656-0.0135412
		c-0.0939293-0.0108471-0.1868458-0.0291405-0.2778759-0.0547085c-0.0914707-0.0242815-0.1767578-0.0676641-0.2502499-0.1272912
		c-0.0710773-0.0688095-0.1255379-0.1529107-0.1592503-0.2459164c-0.0484085-0.1183167-0.0716524-0.2454171-0.0682497-0.3732085
		V5.6160002c0-0.1397505,0.0216665-0.2627082,0.0639162-0.3683338c0.0347939-0.0949259,0.0907345-0.1806889,0.1635838-0.2507915
		c0.0579586-0.0514584,0.1364994-0.0920835,0.2367077-0.1224165c0.0972214-0.032836,0.1979218-0.054285,0.3000832-0.0639167
		c0.1153755-0.0059586,0.222084-0.0092087,0.3185005-0.0092087c0.1365013,0,0.2459183,0.0048752,0.3277092,0.0135417
		c0.0926952,0.00841,0.1842213,0.0267515,0.2729988,0.054708c0.109417,0.0335836,0.1955414,0.0774584,0.2594585,0.1321669
		c0.0639172,0.0541668,0.118084,0.1332502,0.1635838,0.2367086c0.0454998,0.1029162,0.0682507,0.2285833,0.0682507,0.377542
		v1.4148331c0,0.13975-0.0227509,0.2627082-0.0682507,0.3683333c-0.0340252,0.0939012-0.0901299,0.1782441-0.1635838,0.2459168
		c-0.0741844,0.0585527-0.1592407,0.1018167-0.2502499,0.1272917c-0.1029167,0.0335832-0.2014999,0.0530829-0.2957497,0.0595832
		C17.1999168,7.8419204,17.0950527,7.8464403,16.9901657,7.8454995z M16.9993744,7.417583
		c0.1272926,0,0.2182922-0.0075831,0.2730007-0.0227499C17.3215599,7.3815594,17.361908,7.3464036,17.3817902,7.2995
		c0.0178757-0.0454998,0.0270844-0.1197081,0.0270844-0.2231665V5.5705004c0-0.1029167-0.0092087-0.1776667-0.0270844-0.2231665
		c-0.0192509-0.0465088-0.0601788-0.0805473-0.1094151-0.0910001C17.2182083,5.2384586,17.126667,5.22925,16.9993744,5.22925
		c-0.1299992,0-0.2242489,0.0092087-0.2816658,0.0270839c-0.0492382,0.0104527-0.0901661,0.0444913-0.109417,0.0910001
		c-0.0184174,0.0454998-0.0270844,0.1197081-0.0270844,0.2231665v1.5058331c0,0.1029162,0.008667,0.1776667,0.0270844,0.2231665
		c0.0178738,0.0454998,0.0541668,0.0774579,0.1088753,0.0953331C16.7751255,7.4099998,16.8688335,7.417583,16.9993744,7.417583z"/>
</g>
</svg>
