<?xml version="1.0" encoding="utf-8"?>
<!-- Generator: Adobe Illustrator 23.0.1, SVG Export Plug-In . SVG Version: 6.00 Build 0)  -->
<svg version="1.1" id="Слой_1" xmlns="http://www.w3.org/2000/svg" xmlns:xlink="http://www.w3.org/1999/xlink" x="0px" y="0px" width="32px" height="13px"
	 viewBox="0 0 32 13" enable-background="new 0 0 32 13" xml:space="preserve">
<g>
	<circle fill="#1F1F22" cx="16" cy="6.5" r="6.5"/>
	<path fill-rule="evenodd" clip-rule="evenodd" fill="#CDCDCD" fill-opacity="0.1" d="M18.5377083,9.4612913
		c1.6354218-1.4016876,1.8248997-3.8637505,0.423214-5.4991722c-1.4016876-1.6354213-3.8637514-1.8249002-5.4991722-0.423213
		s-1.8249006,3.8637505-0.423214,5.4991722c0.130022,0.1517029,0.2715101,0.293191,0.423214,0.423213l-0.8466253,0.9869165
		C11.4616385,9.4610415,10.7983303,8.0182323,10.8000002,6.5c0-2.8718805,2.3281193-5.1999998,5.1999998-5.1999998
		S21.2000008,3.6281195,21.2000008,6.5c0.0016937,1.518508-0.6618347,2.9615622-1.8156662,3.9487505
		C19.3843346,10.4487505,18.5377083,9.4612923,18.5377083,9.4612913z"/>
	<path fill-rule="evenodd" clip-rule="evenodd" fill="#EEEEEE" d="M12.6925831,8.5670004l-1.1028328,0.6900835
		c0.2799664,0.4466505,0.6258469,0.8484125,1.0259161,1.1916666L13.46175,9.461834
		c-0.300169-0.2572479-0.559516-0.5586023-0.7691669-0.8937502V8.5670004z"/>
	<path fill="#EEEEEE" d="M15.8727083,5.5428748l-0.8054581,0.4463334V5.4291248L16,4.8468332h0.5367908v2.9531665h-0.6640825
		V5.5428748z"/>
</g>
</svg>
