<?xml version="1.0" encoding="utf-8"?>
<!-- Generator: Adobe Illustrator 23.0.1, SVG Export Plug-In . SVG Version: 6.00 Build 0)  -->
<svg version="1.1" id="Слой_1" xmlns="http://www.w3.org/2000/svg" xmlns:xlink="http://www.w3.org/1999/xlink" x="0px" y="0px" width="32px" height="13px"
	 viewBox="0 0 32 13" enable-background="new 0 0 32 13" xml:space="preserve">
<g>
	<circle fill="#1F1F22" cx="16" cy="6.5" r="6.5"/>
	<path fill-rule="evenodd" clip-rule="evenodd" fill="#CDCDCD" fill-opacity="0.1" d="M18.5377083,9.4612913
		c1.6354218-1.4016876,1.8248997-3.8637505,0.423214-5.4991722c-1.4016876-1.6354213-3.8637514-1.8249002-5.4991722-0.423213
		s-1.8249006,3.8637505-0.423214,5.4991722c0.130022,0.1517029,0.2715101,0.293191,0.423214,0.423213l-0.8466253,0.9869165
		C11.4616385,9.4610415,10.7983303,8.0182323,10.8000002,6.5c0-2.8718805,2.3281193-5.1999998,5.1999998-5.1999998
		S21.2000008,3.6281195,21.2000008,6.5c0.0016937,1.518508-0.6618347,2.9615622-1.8156662,3.9487505
		C19.3843346,10.4487505,18.5377083,9.4612923,18.5377083,9.4612913z"/>
	<path fill-rule="evenodd" clip-rule="evenodd" fill="#1CE400" d="M12.3475418,7.8704166l-1.2182083,0.4560833
		c0.3086443,0.8210955,0.8197203,1.5509119,1.4857912,2.1217079L13.46175,9.4612913
		c-0.499588-0.428092-0.8828621-0.9755192-1.1142082-1.5914168V7.8704166z"/>
	<path fill="#1CE400" d="M14.9437504,7.126708c0-0.164125,0.0454998-0.3065834,0.1364994-0.4279165
		c0.0917616-0.1220918,0.2141571-0.2177658,0.3547916-0.2773333c0.1324425-0.0582309,0.2676601-0.1099319,0.4051666-0.1549168
		c0.1263657-0.038538,0.2471104-0.0935383,0.3591251-0.1635838c0.085041-0.0579581,0.1272907-0.1262078,0.1272907-0.2047501
		V5.5201244c0-0.0937085-0.0379162-0.1560001-0.1137486-0.1863332c-0.0812511-0.0335836-0.2090836-0.0498333-0.381876-0.0498333
		c-0.2096243,0-0.4853325,0.0379167-0.828208,0.11375V4.8966665c0.3128834-0.0647874,0.6316471-0.0969186,0.9511662-0.0958748
		c0.357501,0,0.6229162,0.054708,0.7962503,0.164125c0.1755009,0.1088753,0.263792,0.290875,0.263792,0.5460005v0.4094996
		c0,0.1543751-0.0471249,0.2892504-0.1408329,0.4046249c-0.0941868,0.1144276-0.2166939,0.2021999-0.3553333,0.2545834
		c-0.1365013,0.0579586-0.2762508,0.1094165-0.4187088,0.1549168c-0.1308699,0.0426912-0.2549181,0.1039858-0.3683338,0.1820002
		c-0.0877495,0.0666251-0.1321669,0.1462502-0.1321669,0.2367086v0.1500421h1.4197092v0.4961667h-2.074584V7.1261678
		L14.9437504,7.126708z"/>
</g>
</svg>
